<mxfile host="Electron" modified="2023-10-27T12:26:37.014Z" agent="Mozilla/5.0 (Macintosh; Intel Mac OS X 10_15_7) AppleWebKit/537.36 (KHTML, like Gecko) draw.io/22.0.2 Chrome/114.0.5735.289 Electron/25.8.4 Safari/537.36" etag="sdMBfvTWAEG4ICA2aSTv" version="22.0.2" type="device">
  <diagram name="Pagina-1" id="RqrObTrxF4ZsdhfSWzky">
    <mxGraphModel dx="1364" dy="768" grid="1" gridSize="10" guides="1" tooltips="1" connect="1" arrows="1" fold="1" page="1" pageScale="1" pageWidth="827" pageHeight="1169" math="0" shadow="0">
      <root>
        <mxCell id="0" />
        <mxCell id="1" parent="0" />
        <mxCell id="dJeq5VWZDyjKzvkrtB2s-1" value="ATM Layer" style="rounded=0;whiteSpace=wrap;html=1;fillColor=#fff2cc;strokeColor=none;" vertex="1" parent="1">
          <mxGeometry x="40" y="160" width="120" height="80" as="geometry" />
        </mxCell>
        <mxCell id="dJeq5VWZDyjKzvkrtB2s-2" value="MIL" style="rounded=0;whiteSpace=wrap;html=1;fillColor=#d5e8d4;strokeColor=none;" vertex="1" parent="1">
          <mxGeometry x="320" y="280" width="120" height="80" as="geometry" />
        </mxCell>
        <mxCell id="dJeq5VWZDyjKzvkrtB2s-3" value="Payment Instrument" style="rounded=0;whiteSpace=wrap;html=1;fillColor=#f8cecc;strokeColor=none;" vertex="1" parent="1">
          <mxGeometry x="320" y="40" width="120" height="80" as="geometry" />
        </mxCell>
        <mxCell id="dJeq5VWZDyjKzvkrtB2s-4" value="Wallet" style="rounded=0;whiteSpace=wrap;html=1;fillColor=#ffe6cc;strokeColor=none;" vertex="1" parent="1">
          <mxGeometry x="600" y="40" width="120" height="80" as="geometry" />
        </mxCell>
        <mxCell id="dJeq5VWZDyjKzvkrtB2s-5" value="IDPay" style="rounded=0;whiteSpace=wrap;html=1;fillColor=#dae8fc;strokeColor=none;" vertex="1" parent="1">
          <mxGeometry x="600" y="280" width="120" height="80" as="geometry" />
        </mxCell>
        <mxCell id="dJeq5VWZDyjKzvkrtB2s-6" value="1) Richiesta del Token&lt;br&gt;(&lt;u&gt;in&lt;/u&gt;: PAN)" style="endArrow=open;html=1;rounded=0;exitX=0.25;exitY=0;exitDx=0;exitDy=0;entryX=0;entryY=0.25;entryDx=0;entryDy=0;edgeStyle=orthogonalEdgeStyle;endFill=0;" edge="1" parent="1" source="dJeq5VWZDyjKzvkrtB2s-1" target="dJeq5VWZDyjKzvkrtB2s-3">
          <mxGeometry x="0.3143" width="50" height="50" relative="1" as="geometry">
            <mxPoint x="390" y="420" as="sourcePoint" />
            <mxPoint x="440" y="370" as="targetPoint" />
            <mxPoint as="offset" />
          </mxGeometry>
        </mxCell>
        <mxCell id="dJeq5VWZDyjKzvkrtB2s-7" value="2) &lt;u&gt;out&lt;/u&gt;: PAN Token" style="endArrow=open;html=1;rounded=0;exitX=0;exitY=0.75;exitDx=0;exitDy=0;entryX=0.75;entryY=0;entryDx=0;entryDy=0;edgeStyle=orthogonalEdgeStyle;endFill=0;dashed=1;dashPattern=1 1;" edge="1" parent="1" source="dJeq5VWZDyjKzvkrtB2s-3" target="dJeq5VWZDyjKzvkrtB2s-1">
          <mxGeometry x="-0.28" width="50" height="50" relative="1" as="geometry">
            <mxPoint x="80" y="170" as="sourcePoint" />
            <mxPoint x="330" y="110" as="targetPoint" />
            <mxPoint as="offset" />
          </mxGeometry>
        </mxCell>
        <mxCell id="dJeq5VWZDyjKzvkrtB2s-8" value="12) Esito" style="endArrow=none;html=1;rounded=0;exitX=0.25;exitY=1;exitDx=0;exitDy=0;entryX=0;entryY=0.75;entryDx=0;entryDy=0;edgeStyle=orthogonalEdgeStyle;startArrow=open;startFill=0;endFill=0;dashed=1;dashPattern=1 1;" edge="1" parent="1" source="dJeq5VWZDyjKzvkrtB2s-1" target="dJeq5VWZDyjKzvkrtB2s-2">
          <mxGeometry x="0.4857" width="50" height="50" relative="1" as="geometry">
            <mxPoint x="80" y="170" as="sourcePoint" />
            <mxPoint x="330" y="110" as="targetPoint" />
            <mxPoint as="offset" />
          </mxGeometry>
        </mxCell>
        <mxCell id="dJeq5VWZDyjKzvkrtB2s-9" value="3) Richiesta Onboarding&lt;br&gt;(&lt;u&gt;in&lt;/u&gt;: CF*, PAN Token)" style="endArrow=none;html=1;rounded=0;exitX=0;exitY=0.25;exitDx=0;exitDy=0;entryX=0.75;entryY=1;entryDx=0;entryDy=0;edgeStyle=orthogonalEdgeStyle;startArrow=open;startFill=0;endFill=0;" edge="1" parent="1" source="dJeq5VWZDyjKzvkrtB2s-2" target="dJeq5VWZDyjKzvkrtB2s-1">
          <mxGeometry x="-0.28" width="50" height="50" relative="1" as="geometry">
            <mxPoint x="90" y="180" as="sourcePoint" />
            <mxPoint x="340" y="120" as="targetPoint" />
            <mxPoint as="offset" />
          </mxGeometry>
        </mxCell>
        <mxCell id="dJeq5VWZDyjKzvkrtB2s-10" value="4) Richiesta del Wallet ID&lt;br&gt;(&lt;u&gt;in&lt;/u&gt;: CF*, PAN Token)" style="endArrow=open;html=1;rounded=0;exitX=0.25;exitY=0;exitDx=0;exitDy=0;entryX=0.25;entryY=1;entryDx=0;entryDy=0;edgeStyle=orthogonalEdgeStyle;endFill=0;" edge="1" parent="1" source="dJeq5VWZDyjKzvkrtB2s-2" target="dJeq5VWZDyjKzvkrtB2s-4">
          <mxGeometry x="0.0909" width="50" height="50" relative="1" as="geometry">
            <mxPoint x="80" y="250" as="sourcePoint" />
            <mxPoint x="330" y="310" as="targetPoint" />
            <Array as="points">
              <mxPoint x="350" y="180" />
              <mxPoint x="630" y="180" />
            </Array>
            <mxPoint as="offset" />
          </mxGeometry>
        </mxCell>
        <mxCell id="dJeq5VWZDyjKzvkrtB2s-11" value="7) &lt;u&gt;out&lt;/u&gt;: Wallet ID" style="endArrow=open;html=1;rounded=0;exitX=0.75;exitY=1;exitDx=0;exitDy=0;entryX=0.75;entryY=0;entryDx=0;entryDy=0;edgeStyle=orthogonalEdgeStyle;endFill=0;dashed=1;dashPattern=1 1;" edge="1" parent="1" source="dJeq5VWZDyjKzvkrtB2s-4" target="dJeq5VWZDyjKzvkrtB2s-2">
          <mxGeometry x="0.0909" width="50" height="50" relative="1" as="geometry">
            <mxPoint x="360" y="250" as="sourcePoint" />
            <mxPoint x="640" y="170" as="targetPoint" />
            <Array as="points">
              <mxPoint x="690" y="220" />
              <mxPoint x="410" y="220" />
            </Array>
            <mxPoint as="offset" />
          </mxGeometry>
        </mxCell>
        <mxCell id="dJeq5VWZDyjKzvkrtB2s-12" value="8) Richiesta Onboarding&lt;br&gt;(&lt;u&gt;in&lt;/u&gt;: CF*, Wallet ID)" style="endArrow=open;html=1;rounded=0;exitX=1;exitY=0.25;exitDx=0;exitDy=0;entryX=0;entryY=0.25;entryDx=0;entryDy=0;endFill=0;" edge="1" parent="1" source="dJeq5VWZDyjKzvkrtB2s-2" target="dJeq5VWZDyjKzvkrtB2s-5">
          <mxGeometry width="50" height="50" relative="1" as="geometry">
            <mxPoint x="360" y="290" as="sourcePoint" />
            <mxPoint x="640" y="130" as="targetPoint" />
          </mxGeometry>
        </mxCell>
        <mxCell id="dJeq5VWZDyjKzvkrtB2s-13" value="11) Esito" style="endArrow=open;html=1;rounded=0;exitX=0;exitY=0.75;exitDx=0;exitDy=0;entryX=1;entryY=0.75;entryDx=0;entryDy=0;endFill=0;" edge="1" parent="1" source="dJeq5VWZDyjKzvkrtB2s-5" target="dJeq5VWZDyjKzvkrtB2s-2">
          <mxGeometry width="50" height="50" relative="1" as="geometry">
            <mxPoint x="450" y="310" as="sourcePoint" />
            <mxPoint x="610" y="310" as="targetPoint" />
          </mxGeometry>
        </mxCell>
        <mxCell id="dJeq5VWZDyjKzvkrtB2s-14" value="9) Associa IDPay&lt;br&gt;(&lt;u&gt;in&lt;/u&gt;: Wallet ID)" style="endArrow=open;html=1;rounded=0;exitX=1;exitY=0.25;exitDx=0;exitDy=0;entryX=1;entryY=0.75;entryDx=0;entryDy=0;edgeStyle=elbowEdgeStyle;horizontal=0;endFill=0;elbow=vertical;" edge="1" parent="1" source="dJeq5VWZDyjKzvkrtB2s-5" target="dJeq5VWZDyjKzvkrtB2s-4">
          <mxGeometry width="50" height="50" relative="1" as="geometry">
            <mxPoint x="420" y="300" as="sourcePoint" />
            <mxPoint x="470" y="250" as="targetPoint" />
            <Array as="points">
              <mxPoint x="760" y="200" />
            </Array>
            <mxPoint as="offset" />
          </mxGeometry>
        </mxCell>
        <mxCell id="dJeq5VWZDyjKzvkrtB2s-15" value="10) Esito" style="endArrow=open;html=1;rounded=0;exitX=1;exitY=0.25;exitDx=0;exitDy=0;entryX=1;entryY=0.75;entryDx=0;entryDy=0;edgeStyle=elbowEdgeStyle;horizontal=0;endFill=0;dashed=1;dashPattern=1 1;" edge="1" parent="1" source="dJeq5VWZDyjKzvkrtB2s-4" target="dJeq5VWZDyjKzvkrtB2s-5">
          <mxGeometry width="50" height="50" relative="1" as="geometry">
            <mxPoint x="420" y="300" as="sourcePoint" />
            <mxPoint x="470" y="250" as="targetPoint" />
            <Array as="points">
              <mxPoint x="800" y="190" />
            </Array>
            <mxPoint as="offset" />
          </mxGeometry>
        </mxCell>
        <mxCell id="dJeq5VWZDyjKzvkrtB2s-16" value="5) Verifica del Token&lt;br&gt;(&lt;u&gt;in&lt;/u&gt;: PAN Token)" style="endArrow=open;html=1;rounded=0;endFill=0;entryX=1;entryY=0.25;entryDx=0;entryDy=0;exitX=0;exitY=0.25;exitDx=0;exitDy=0;" edge="1" parent="1" source="dJeq5VWZDyjKzvkrtB2s-4" target="dJeq5VWZDyjKzvkrtB2s-3">
          <mxGeometry width="50" height="50" relative="1" as="geometry">
            <mxPoint x="620" y="20" as="sourcePoint" />
            <mxPoint x="460" y="10" as="targetPoint" />
            <mxPoint as="offset" />
          </mxGeometry>
        </mxCell>
        <mxCell id="dJeq5VWZDyjKzvkrtB2s-17" value="6) Esito" style="endArrow=open;html=1;rounded=0;exitX=1;exitY=0.75;exitDx=0;exitDy=0;entryX=0;entryY=0.75;entryDx=0;entryDy=0;endFill=0;dashed=1;dashPattern=1 1;" edge="1" parent="1" source="dJeq5VWZDyjKzvkrtB2s-3" target="dJeq5VWZDyjKzvkrtB2s-4">
          <mxGeometry width="50" height="50" relative="1" as="geometry">
            <mxPoint x="420" y="380" as="sourcePoint" />
            <mxPoint x="470" y="330" as="targetPoint" />
          </mxGeometry>
        </mxCell>
        <mxCell id="dJeq5VWZDyjKzvkrtB2s-18" value="ATM Layer" style="rounded=0;whiteSpace=wrap;html=1;fillColor=#fff2cc;strokeColor=none;" vertex="1" parent="1">
          <mxGeometry x="40" y="560" width="120" height="80" as="geometry" />
        </mxCell>
        <mxCell id="dJeq5VWZDyjKzvkrtB2s-19" value="MIL" style="rounded=0;whiteSpace=wrap;html=1;fillColor=#d5e8d4;strokeColor=none;" vertex="1" parent="1">
          <mxGeometry x="320" y="680" width="120" height="80" as="geometry" />
        </mxCell>
        <mxCell id="dJeq5VWZDyjKzvkrtB2s-20" value="Payment Instrument" style="rounded=0;whiteSpace=wrap;html=1;fillColor=#f8cecc;strokeColor=none;" vertex="1" parent="1">
          <mxGeometry x="320" y="440" width="120" height="80" as="geometry" />
        </mxCell>
        <mxCell id="dJeq5VWZDyjKzvkrtB2s-21" value="Wallet" style="rounded=0;whiteSpace=wrap;html=1;fillColor=#ffe6cc;strokeColor=none;" vertex="1" parent="1">
          <mxGeometry x="600" y="440" width="120" height="80" as="geometry" />
        </mxCell>
        <mxCell id="dJeq5VWZDyjKzvkrtB2s-22" value="IDPay" style="rounded=0;whiteSpace=wrap;html=1;fillColor=#dae8fc;strokeColor=none;" vertex="1" parent="1">
          <mxGeometry x="600" y="680" width="120" height="80" as="geometry" />
        </mxCell>
        <mxCell id="dJeq5VWZDyjKzvkrtB2s-23" value="1) Richiesta del Token&lt;br&gt;(&lt;u&gt;in&lt;/u&gt;: PAN)" style="endArrow=open;html=1;rounded=0;exitX=0.25;exitY=0;exitDx=0;exitDy=0;entryX=0;entryY=0.25;entryDx=0;entryDy=0;edgeStyle=orthogonalEdgeStyle;endFill=0;" edge="1" parent="1" source="dJeq5VWZDyjKzvkrtB2s-18" target="dJeq5VWZDyjKzvkrtB2s-20">
          <mxGeometry x="0.3143" width="50" height="50" relative="1" as="geometry">
            <mxPoint x="390" y="820" as="sourcePoint" />
            <mxPoint x="440" y="770" as="targetPoint" />
            <mxPoint as="offset" />
          </mxGeometry>
        </mxCell>
        <mxCell id="dJeq5VWZDyjKzvkrtB2s-24" value="2) &lt;u&gt;out&lt;/u&gt;: PAN Token" style="endArrow=open;html=1;rounded=0;exitX=0;exitY=0.75;exitDx=0;exitDy=0;entryX=0.75;entryY=0;entryDx=0;entryDy=0;edgeStyle=orthogonalEdgeStyle;endFill=0;dashed=1;dashPattern=1 1;" edge="1" parent="1" source="dJeq5VWZDyjKzvkrtB2s-20" target="dJeq5VWZDyjKzvkrtB2s-18">
          <mxGeometry x="-0.28" width="50" height="50" relative="1" as="geometry">
            <mxPoint x="80" y="570" as="sourcePoint" />
            <mxPoint x="330" y="510" as="targetPoint" />
            <mxPoint as="offset" />
          </mxGeometry>
        </mxCell>
        <mxCell id="dJeq5VWZDyjKzvkrtB2s-25" value="10) Esito" style="endArrow=none;html=1;rounded=0;exitX=0.25;exitY=1;exitDx=0;exitDy=0;entryX=0;entryY=0.75;entryDx=0;entryDy=0;edgeStyle=orthogonalEdgeStyle;startArrow=open;startFill=0;endFill=0;dashed=1;dashPattern=1 1;" edge="1" parent="1" source="dJeq5VWZDyjKzvkrtB2s-18" target="dJeq5VWZDyjKzvkrtB2s-19">
          <mxGeometry x="0.4857" width="50" height="50" relative="1" as="geometry">
            <mxPoint x="80" y="570" as="sourcePoint" />
            <mxPoint x="330" y="510" as="targetPoint" />
            <mxPoint as="offset" />
          </mxGeometry>
        </mxCell>
        <mxCell id="dJeq5VWZDyjKzvkrtB2s-26" value="3) Richiesta Onboarding&lt;br&gt;(&lt;u&gt;in&lt;/u&gt;: CF*, PAN Token)" style="endArrow=none;html=1;rounded=0;exitX=0;exitY=0.25;exitDx=0;exitDy=0;entryX=0.75;entryY=1;entryDx=0;entryDy=0;edgeStyle=orthogonalEdgeStyle;startArrow=open;startFill=0;endFill=0;" edge="1" parent="1" source="dJeq5VWZDyjKzvkrtB2s-19" target="dJeq5VWZDyjKzvkrtB2s-18">
          <mxGeometry x="-0.28" width="50" height="50" relative="1" as="geometry">
            <mxPoint x="90" y="580" as="sourcePoint" />
            <mxPoint x="340" y="520" as="targetPoint" />
            <mxPoint as="offset" />
          </mxGeometry>
        </mxCell>
        <mxCell id="dJeq5VWZDyjKzvkrtB2s-27" value="4) Richiesta Onboarding&lt;br&gt;(&lt;u&gt;in&lt;/u&gt;: CF*, PAN Token)" style="endArrow=open;html=1;rounded=0;exitX=1;exitY=0.25;exitDx=0;exitDy=0;entryX=0;entryY=0.25;entryDx=0;entryDy=0;endFill=0;" edge="1" parent="1" source="dJeq5VWZDyjKzvkrtB2s-19" target="dJeq5VWZDyjKzvkrtB2s-22">
          <mxGeometry width="50" height="50" relative="1" as="geometry">
            <mxPoint x="360" y="690" as="sourcePoint" />
            <mxPoint x="640" y="530" as="targetPoint" />
            <mxPoint as="offset" />
          </mxGeometry>
        </mxCell>
        <mxCell id="dJeq5VWZDyjKzvkrtB2s-28" value="9) Esito" style="endArrow=open;html=1;rounded=0;exitX=0;exitY=0.75;exitDx=0;exitDy=0;entryX=1;entryY=0.75;entryDx=0;entryDy=0;endFill=0;" edge="1" parent="1" source="dJeq5VWZDyjKzvkrtB2s-22" target="dJeq5VWZDyjKzvkrtB2s-19">
          <mxGeometry width="50" height="50" relative="1" as="geometry">
            <mxPoint x="450" y="710" as="sourcePoint" />
            <mxPoint x="610" y="710" as="targetPoint" />
            <mxPoint as="offset" />
          </mxGeometry>
        </mxCell>
        <mxCell id="dJeq5VWZDyjKzvkrtB2s-29" value="5) Associa IDPay&lt;br&gt;(&lt;u&gt;in&lt;/u&gt;: CF*, PAN Token)" style="endArrow=open;html=1;rounded=0;exitX=1;exitY=0.25;exitDx=0;exitDy=0;entryX=1;entryY=0.75;entryDx=0;entryDy=0;edgeStyle=elbowEdgeStyle;horizontal=0;endFill=0;elbow=vertical;" edge="1" parent="1" source="dJeq5VWZDyjKzvkrtB2s-22" target="dJeq5VWZDyjKzvkrtB2s-21">
          <mxGeometry width="50" height="50" relative="1" as="geometry">
            <mxPoint x="420" y="700" as="sourcePoint" />
            <mxPoint x="470" y="650" as="targetPoint" />
            <Array as="points">
              <mxPoint x="760" y="600" />
            </Array>
            <mxPoint as="offset" />
          </mxGeometry>
        </mxCell>
        <mxCell id="dJeq5VWZDyjKzvkrtB2s-30" value="8) Esito (&lt;u&gt;out&lt;/u&gt;: Wallet ID)" style="endArrow=open;html=1;rounded=0;exitX=1;exitY=0.25;exitDx=0;exitDy=0;entryX=1;entryY=0.75;entryDx=0;entryDy=0;edgeStyle=elbowEdgeStyle;horizontal=0;endFill=0;dashed=1;dashPattern=1 1;elbow=vertical;" edge="1" parent="1" source="dJeq5VWZDyjKzvkrtB2s-21" target="dJeq5VWZDyjKzvkrtB2s-22">
          <mxGeometry width="50" height="50" relative="1" as="geometry">
            <mxPoint x="420" y="700" as="sourcePoint" />
            <mxPoint x="470" y="650" as="targetPoint" />
            <Array as="points">
              <mxPoint x="800" y="590" />
            </Array>
            <mxPoint as="offset" />
          </mxGeometry>
        </mxCell>
        <mxCell id="dJeq5VWZDyjKzvkrtB2s-31" value="6) Verifica del Token&lt;br&gt;(&lt;u&gt;in&lt;/u&gt;: PAN Token)" style="endArrow=open;html=1;rounded=0;endFill=0;entryX=1;entryY=0.25;entryDx=0;entryDy=0;exitX=0;exitY=0.25;exitDx=0;exitDy=0;" edge="1" parent="1" source="dJeq5VWZDyjKzvkrtB2s-21" target="dJeq5VWZDyjKzvkrtB2s-20">
          <mxGeometry width="50" height="50" relative="1" as="geometry">
            <mxPoint x="620" y="420" as="sourcePoint" />
            <mxPoint x="460" y="410" as="targetPoint" />
            <mxPoint as="offset" />
          </mxGeometry>
        </mxCell>
        <mxCell id="dJeq5VWZDyjKzvkrtB2s-32" value="7) Esito" style="endArrow=open;html=1;rounded=0;exitX=1;exitY=0.75;exitDx=0;exitDy=0;entryX=0;entryY=0.75;entryDx=0;entryDy=0;endFill=0;dashed=1;dashPattern=1 1;" edge="1" parent="1" source="dJeq5VWZDyjKzvkrtB2s-20" target="dJeq5VWZDyjKzvkrtB2s-21">
          <mxGeometry width="50" height="50" relative="1" as="geometry">
            <mxPoint x="420" y="780" as="sourcePoint" />
            <mxPoint x="470" y="730" as="targetPoint" />
            <mxPoint as="offset" />
          </mxGeometry>
        </mxCell>
      </root>
    </mxGraphModel>
  </diagram>
</mxfile>
